<mxfile host="app.diagrams.net" modified="2024-04-24T23:08:33.045Z" agent="Mozilla/5.0 (Windows NT 10.0; Win64; x64) AppleWebKit/537.36 (KHTML, like Gecko) Chrome/126.0.0.0 Safari/537.36 Viewer/100.9.6158.59" etag="Rx1V4ne-NcpEJPH4M5Po" version="24.2.7" type="device">
  <diagram id="C5RBs43oDa-KdzZeNtuy" name="Page-1">
    <mxGraphModel dx="1467" dy="898" grid="1" gridSize="10" guides="1" tooltips="1" connect="1" arrows="1" fold="1" page="1" pageScale="1" pageWidth="827" pageHeight="1169" math="0" shadow="0">
      <root>
        <mxCell id="WIyWlLk6GJQsqaUBKTNV-0" />
        <mxCell id="WIyWlLk6GJQsqaUBKTNV-1" parent="WIyWlLk6GJQsqaUBKTNV-0" />
        <mxCell id="l5p4byjVXo3E2C04ONsa-12" value="" style="edgeStyle=orthogonalEdgeStyle;rounded=0;orthogonalLoop=1;jettySize=auto;html=1;" edge="1" parent="WIyWlLk6GJQsqaUBKTNV-1" source="WIyWlLk6GJQsqaUBKTNV-6" target="l5p4byjVXo3E2C04ONsa-9">
          <mxGeometry relative="1" as="geometry" />
        </mxCell>
        <mxCell id="l5p4byjVXo3E2C04ONsa-42" value="No" style="edgeLabel;html=1;align=center;verticalAlign=middle;resizable=0;points=[];" vertex="1" connectable="0" parent="l5p4byjVXo3E2C04ONsa-12">
          <mxGeometry x="0.2048" relative="1" as="geometry">
            <mxPoint as="offset" />
          </mxGeometry>
        </mxCell>
        <mxCell id="l5p4byjVXo3E2C04ONsa-21" value="" style="edgeStyle=orthogonalEdgeStyle;rounded=0;orthogonalLoop=1;jettySize=auto;html=1;" edge="1" parent="WIyWlLk6GJQsqaUBKTNV-1" source="WIyWlLk6GJQsqaUBKTNV-6" target="l5p4byjVXo3E2C04ONsa-20">
          <mxGeometry relative="1" as="geometry" />
        </mxCell>
        <mxCell id="l5p4byjVXo3E2C04ONsa-39" value="Yes" style="edgeLabel;html=1;align=center;verticalAlign=middle;resizable=0;points=[];" vertex="1" connectable="0" parent="l5p4byjVXo3E2C04ONsa-21">
          <mxGeometry x="-0.4596" relative="1" as="geometry">
            <mxPoint x="6" as="offset" />
          </mxGeometry>
        </mxCell>
        <mxCell id="WIyWlLk6GJQsqaUBKTNV-6" value="Case None" style="rhombus;whiteSpace=wrap;html=1;shadow=0;fontFamily=Helvetica;fontSize=12;align=center;strokeWidth=1;spacing=6;spacingTop=-4;fillColor=#b0e3e6;strokeColor=#0e8088;" parent="WIyWlLk6GJQsqaUBKTNV-1" vertex="1">
          <mxGeometry x="180" y="530" width="100" height="80" as="geometry" />
        </mxCell>
        <mxCell id="l5p4byjVXo3E2C04ONsa-17" value="" style="edgeStyle=orthogonalEdgeStyle;rounded=0;orthogonalLoop=1;jettySize=auto;html=1;" edge="1" parent="WIyWlLk6GJQsqaUBKTNV-1" source="l5p4byjVXo3E2C04ONsa-2" target="l5p4byjVXo3E2C04ONsa-3">
          <mxGeometry relative="1" as="geometry" />
        </mxCell>
        <mxCell id="l5p4byjVXo3E2C04ONsa-2" value="Start" style="strokeWidth=2;html=1;shape=mxgraph.flowchart.start_1;whiteSpace=wrap;" vertex="1" parent="WIyWlLk6GJQsqaUBKTNV-1">
          <mxGeometry x="20" y="20" width="100" height="60" as="geometry" />
        </mxCell>
        <mxCell id="l5p4byjVXo3E2C04ONsa-37" value="" style="edgeStyle=orthogonalEdgeStyle;rounded=0;orthogonalLoop=1;jettySize=auto;html=1;" edge="1" parent="WIyWlLk6GJQsqaUBKTNV-1" source="l5p4byjVXo3E2C04ONsa-3" target="l5p4byjVXo3E2C04ONsa-36">
          <mxGeometry relative="1" as="geometry" />
        </mxCell>
        <mxCell id="l5p4byjVXo3E2C04ONsa-3" value="Login" style="verticalLabelPosition=bottom;verticalAlign=top;html=1;shape=process;whiteSpace=wrap;rounded=1;size=0.14;arcSize=6;spacingTop=-45;fillColor=#b0e3e6;strokeColor=#0e8088;" vertex="1" parent="WIyWlLk6GJQsqaUBKTNV-1">
          <mxGeometry x="20" y="120" width="100" height="60" as="geometry" />
        </mxCell>
        <mxCell id="l5p4byjVXo3E2C04ONsa-14" value="" style="edgeStyle=orthogonalEdgeStyle;rounded=0;orthogonalLoop=1;jettySize=auto;html=1;" edge="1" parent="WIyWlLk6GJQsqaUBKTNV-1" source="l5p4byjVXo3E2C04ONsa-4" target="l5p4byjVXo3E2C04ONsa-5">
          <mxGeometry relative="1" as="geometry" />
        </mxCell>
        <mxCell id="l5p4byjVXo3E2C04ONsa-4" value="Login()" style="strokeWidth=2;html=1;shape=mxgraph.flowchart.start_1;whiteSpace=wrap;fillColor=#b0e3e6;strokeColor=#0e8088;" vertex="1" parent="WIyWlLk6GJQsqaUBKTNV-1">
          <mxGeometry x="180" y="20" width="100" height="60" as="geometry" />
        </mxCell>
        <mxCell id="l5p4byjVXo3E2C04ONsa-27" value="" style="edgeStyle=orthogonalEdgeStyle;rounded=0;orthogonalLoop=1;jettySize=auto;html=1;" edge="1" parent="WIyWlLk6GJQsqaUBKTNV-1" source="l5p4byjVXo3E2C04ONsa-5" target="l5p4byjVXo3E2C04ONsa-26">
          <mxGeometry relative="1" as="geometry" />
        </mxCell>
        <mxCell id="l5p4byjVXo3E2C04ONsa-5" value="email &amp;amp;&lt;br&gt;password" style="shape=parallelogram;html=1;strokeWidth=2;perimeter=parallelogramPerimeter;whiteSpace=wrap;rounded=1;arcSize=12;size=0.23;fillColor=#b0e3e6;strokeColor=#0e8088;" vertex="1" parent="WIyWlLk6GJQsqaUBKTNV-1">
          <mxGeometry x="180" y="120" width="100" height="60" as="geometry" />
        </mxCell>
        <mxCell id="l5p4byjVXo3E2C04ONsa-16" value="" style="edgeStyle=orthogonalEdgeStyle;rounded=0;orthogonalLoop=1;jettySize=auto;html=1;" edge="1" parent="WIyWlLk6GJQsqaUBKTNV-1" source="l5p4byjVXo3E2C04ONsa-6" target="l5p4byjVXo3E2C04ONsa-7">
          <mxGeometry relative="1" as="geometry" />
        </mxCell>
        <mxCell id="l5p4byjVXo3E2C04ONsa-6" value="status_login = model_dosen.proses_login()" style="rounded=1;whiteSpace=wrap;html=1;absoluteArcSize=1;arcSize=14;strokeWidth=2;fillColor=#b0e3e6;strokeColor=#0e8088;" vertex="1" parent="WIyWlLk6GJQsqaUBKTNV-1">
          <mxGeometry x="145" y="340" width="170" height="60" as="geometry" />
        </mxCell>
        <mxCell id="l5p4byjVXo3E2C04ONsa-11" value="" style="edgeStyle=orthogonalEdgeStyle;rounded=0;orthogonalLoop=1;jettySize=auto;html=1;" edge="1" parent="WIyWlLk6GJQsqaUBKTNV-1" source="l5p4byjVXo3E2C04ONsa-7" target="WIyWlLk6GJQsqaUBKTNV-6">
          <mxGeometry relative="1" as="geometry" />
        </mxCell>
        <mxCell id="l5p4byjVXo3E2C04ONsa-7" value="Switch status_login" style="rounded=1;whiteSpace=wrap;html=1;absoluteArcSize=1;arcSize=14;strokeWidth=2;fillColor=#b0e3e6;strokeColor=#0e8088;" vertex="1" parent="WIyWlLk6GJQsqaUBKTNV-1">
          <mxGeometry x="180" y="440" width="100" height="60" as="geometry" />
        </mxCell>
        <mxCell id="l5p4byjVXo3E2C04ONsa-13" value="" style="edgeStyle=orthogonalEdgeStyle;rounded=0;orthogonalLoop=1;jettySize=auto;html=1;" edge="1" parent="WIyWlLk6GJQsqaUBKTNV-1" source="l5p4byjVXo3E2C04ONsa-9" target="l5p4byjVXo3E2C04ONsa-10">
          <mxGeometry relative="1" as="geometry" />
        </mxCell>
        <mxCell id="l5p4byjVXo3E2C04ONsa-43" value="No" style="edgeLabel;html=1;align=center;verticalAlign=middle;resizable=0;points=[];" vertex="1" connectable="0" parent="l5p4byjVXo3E2C04ONsa-13">
          <mxGeometry x="-0.1056" y="-1" relative="1" as="geometry">
            <mxPoint as="offset" />
          </mxGeometry>
        </mxCell>
        <mxCell id="l5p4byjVXo3E2C04ONsa-22" style="edgeStyle=orthogonalEdgeStyle;rounded=0;orthogonalLoop=1;jettySize=auto;html=1;" edge="1" parent="WIyWlLk6GJQsqaUBKTNV-1" source="l5p4byjVXo3E2C04ONsa-9" target="l5p4byjVXo3E2C04ONsa-4">
          <mxGeometry relative="1" as="geometry">
            <Array as="points">
              <mxPoint x="460" y="684" />
              <mxPoint x="460" y="50" />
            </Array>
          </mxGeometry>
        </mxCell>
        <mxCell id="l5p4byjVXo3E2C04ONsa-40" value="Yes" style="edgeLabel;html=1;align=center;verticalAlign=middle;resizable=0;points=[];" vertex="1" connectable="0" parent="l5p4byjVXo3E2C04ONsa-22">
          <mxGeometry x="-0.8168" y="-1" relative="1" as="geometry">
            <mxPoint as="offset" />
          </mxGeometry>
        </mxCell>
        <mxCell id="l5p4byjVXo3E2C04ONsa-9" value="Case False" style="rhombus;whiteSpace=wrap;html=1;shadow=0;fontFamily=Helvetica;fontSize=12;align=center;strokeWidth=1;spacing=6;spacingTop=-4;fillColor=#b0e3e6;strokeColor=#0e8088;" vertex="1" parent="WIyWlLk6GJQsqaUBKTNV-1">
          <mxGeometry x="180" y="644" width="100" height="80" as="geometry" />
        </mxCell>
        <mxCell id="l5p4byjVXo3E2C04ONsa-24" value="" style="edgeStyle=orthogonalEdgeStyle;rounded=0;orthogonalLoop=1;jettySize=auto;html=1;" edge="1" parent="WIyWlLk6GJQsqaUBKTNV-1" source="l5p4byjVXo3E2C04ONsa-10" target="l5p4byjVXo3E2C04ONsa-23">
          <mxGeometry relative="1" as="geometry" />
        </mxCell>
        <mxCell id="l5p4byjVXo3E2C04ONsa-41" value="Yes" style="edgeLabel;html=1;align=center;verticalAlign=middle;resizable=0;points=[];" vertex="1" connectable="0" parent="l5p4byjVXo3E2C04ONsa-24">
          <mxGeometry x="0.0197" y="-1" relative="1" as="geometry">
            <mxPoint as="offset" />
          </mxGeometry>
        </mxCell>
        <mxCell id="l5p4byjVXo3E2C04ONsa-10" value="Case True" style="rhombus;whiteSpace=wrap;html=1;shadow=0;fontFamily=Helvetica;fontSize=12;align=center;strokeWidth=1;spacing=6;spacingTop=-4;fillColor=#b0e3e6;strokeColor=#0e8088;" vertex="1" parent="WIyWlLk6GJQsqaUBKTNV-1">
          <mxGeometry x="180" y="760" width="100" height="80" as="geometry" />
        </mxCell>
        <mxCell id="l5p4byjVXo3E2C04ONsa-18" value="End" style="strokeWidth=2;html=1;shape=mxgraph.flowchart.start_1;whiteSpace=wrap;" vertex="1" parent="WIyWlLk6GJQsqaUBKTNV-1">
          <mxGeometry x="20" y="310" width="100" height="60" as="geometry" />
        </mxCell>
        <mxCell id="l5p4byjVXo3E2C04ONsa-20" value="Register" style="verticalLabelPosition=bottom;verticalAlign=top;html=1;shape=process;whiteSpace=wrap;rounded=1;size=0.14;arcSize=6;spacingTop=-45;fillColor=#b0e3e6;strokeColor=#0e8088;" vertex="1" parent="WIyWlLk6GJQsqaUBKTNV-1">
          <mxGeometry x="330" y="540" width="116" height="60" as="geometry" />
        </mxCell>
        <mxCell id="l5p4byjVXo3E2C04ONsa-23" value="return" style="strokeWidth=2;html=1;shape=mxgraph.flowchart.start_1;whiteSpace=wrap;fillColor=#b0e3e6;strokeColor=#0e8088;" vertex="1" parent="WIyWlLk6GJQsqaUBKTNV-1">
          <mxGeometry x="338" y="770" width="100" height="60" as="geometry" />
        </mxCell>
        <mxCell id="l5p4byjVXo3E2C04ONsa-32" value="" style="edgeStyle=orthogonalEdgeStyle;rounded=0;orthogonalLoop=1;jettySize=auto;html=1;" edge="1" parent="WIyWlLk6GJQsqaUBKTNV-1" source="l5p4byjVXo3E2C04ONsa-25" target="l5p4byjVXo3E2C04ONsa-31">
          <mxGeometry relative="1" as="geometry" />
        </mxCell>
        <mxCell id="l5p4byjVXo3E2C04ONsa-25" value="Register()" style="strokeWidth=2;html=1;shape=mxgraph.flowchart.start_1;whiteSpace=wrap;fillColor=#b1ddf0;strokeColor=#10739e;" vertex="1" parent="WIyWlLk6GJQsqaUBKTNV-1">
          <mxGeometry x="550" y="20" width="100" height="60" as="geometry" />
        </mxCell>
        <mxCell id="l5p4byjVXo3E2C04ONsa-29" value="" style="edgeStyle=orthogonalEdgeStyle;rounded=0;orthogonalLoop=1;jettySize=auto;html=1;" edge="1" parent="WIyWlLk6GJQsqaUBKTNV-1" source="l5p4byjVXo3E2C04ONsa-26" target="l5p4byjVXo3E2C04ONsa-6">
          <mxGeometry relative="1" as="geometry" />
        </mxCell>
        <mxCell id="l5p4byjVXo3E2C04ONsa-26" value="self.model_dosen = Dosen(email, password)" style="rounded=1;whiteSpace=wrap;html=1;absoluteArcSize=1;arcSize=14;strokeWidth=2;fillColor=#b0e3e6;strokeColor=#0e8088;" vertex="1" parent="WIyWlLk6GJQsqaUBKTNV-1">
          <mxGeometry x="160" y="230" width="140" height="60" as="geometry" />
        </mxCell>
        <mxCell id="l5p4byjVXo3E2C04ONsa-35" value="" style="edgeStyle=orthogonalEdgeStyle;rounded=0;orthogonalLoop=1;jettySize=auto;html=1;" edge="1" parent="WIyWlLk6GJQsqaUBKTNV-1" source="l5p4byjVXo3E2C04ONsa-30" target="l5p4byjVXo3E2C04ONsa-34">
          <mxGeometry relative="1" as="geometry" />
        </mxCell>
        <mxCell id="l5p4byjVXo3E2C04ONsa-30" value="model_dosen.membuat_akun&lt;div&gt;(nama_dosen)&lt;/div&gt;" style="rounded=1;whiteSpace=wrap;html=1;absoluteArcSize=1;arcSize=14;strokeWidth=2;fillColor=#b1ddf0;strokeColor=#10739e;" vertex="1" parent="WIyWlLk6GJQsqaUBKTNV-1">
          <mxGeometry x="510" y="230" width="180" height="60" as="geometry" />
        </mxCell>
        <mxCell id="l5p4byjVXo3E2C04ONsa-33" value="" style="edgeStyle=orthogonalEdgeStyle;rounded=0;orthogonalLoop=1;jettySize=auto;html=1;" edge="1" parent="WIyWlLk6GJQsqaUBKTNV-1" source="l5p4byjVXo3E2C04ONsa-31" target="l5p4byjVXo3E2C04ONsa-30">
          <mxGeometry relative="1" as="geometry" />
        </mxCell>
        <mxCell id="l5p4byjVXo3E2C04ONsa-31" value="nama_dosen" style="shape=parallelogram;html=1;strokeWidth=2;perimeter=parallelogramPerimeter;whiteSpace=wrap;rounded=1;arcSize=12;size=0.23;fillColor=#b1ddf0;strokeColor=#10739e;" vertex="1" parent="WIyWlLk6GJQsqaUBKTNV-1">
          <mxGeometry x="550" y="120" width="100" height="60" as="geometry" />
        </mxCell>
        <mxCell id="l5p4byjVXo3E2C04ONsa-34" value="return Login()" style="strokeWidth=2;html=1;shape=mxgraph.flowchart.start_1;whiteSpace=wrap;fillColor=#b1ddf0;strokeColor=#10739e;" vertex="1" parent="WIyWlLk6GJQsqaUBKTNV-1">
          <mxGeometry x="550" y="330" width="100" height="60" as="geometry" />
        </mxCell>
        <mxCell id="l5p4byjVXo3E2C04ONsa-74" value="" style="edgeStyle=orthogonalEdgeStyle;rounded=0;orthogonalLoop=1;jettySize=auto;html=1;" edge="1" parent="WIyWlLk6GJQsqaUBKTNV-1" source="l5p4byjVXo3E2C04ONsa-36" target="l5p4byjVXo3E2C04ONsa-18">
          <mxGeometry relative="1" as="geometry" />
        </mxCell>
        <mxCell id="l5p4byjVXo3E2C04ONsa-36" value="daftar_siswa" style="verticalLabelPosition=bottom;verticalAlign=top;html=1;shape=process;whiteSpace=wrap;rounded=1;size=0.14;arcSize=6;spacingTop=-45;fillColor=#d0cee2;strokeColor=#56517e;" vertex="1" parent="WIyWlLk6GJQsqaUBKTNV-1">
          <mxGeometry x="20" y="210" width="100" height="60" as="geometry" />
        </mxCell>
        <mxCell id="l5p4byjVXo3E2C04ONsa-65" value="" style="edgeStyle=orthogonalEdgeStyle;rounded=0;orthogonalLoop=1;jettySize=auto;html=1;" edge="1" parent="WIyWlLk6GJQsqaUBKTNV-1" source="l5p4byjVXo3E2C04ONsa-44" target="l5p4byjVXo3E2C04ONsa-45">
          <mxGeometry relative="1" as="geometry" />
        </mxCell>
        <mxCell id="l5p4byjVXo3E2C04ONsa-44" value="daftar_siswa()" style="strokeWidth=2;html=1;shape=mxgraph.flowchart.start_1;whiteSpace=wrap;fillColor=#d0cee2;strokeColor=#56517e;" vertex="1" parent="WIyWlLk6GJQsqaUBKTNV-1">
          <mxGeometry x="760" y="20" width="100" height="60" as="geometry" />
        </mxCell>
        <mxCell id="l5p4byjVXo3E2C04ONsa-66" value="" style="edgeStyle=orthogonalEdgeStyle;rounded=0;orthogonalLoop=1;jettySize=auto;html=1;" edge="1" parent="WIyWlLk6GJQsqaUBKTNV-1" source="l5p4byjVXo3E2C04ONsa-45" target="l5p4byjVXo3E2C04ONsa-46">
          <mxGeometry relative="1" as="geometry" />
        </mxCell>
        <mxCell id="l5p4byjVXo3E2C04ONsa-45" value="data_siswa = model_dosen.ambil_data_siswa()" style="rounded=1;whiteSpace=wrap;html=1;absoluteArcSize=1;arcSize=14;strokeWidth=2;fillColor=#d0cee2;strokeColor=#56517e;" vertex="1" parent="WIyWlLk6GJQsqaUBKTNV-1">
          <mxGeometry x="720" y="120" width="180" height="60" as="geometry" />
        </mxCell>
        <mxCell id="l5p4byjVXo3E2C04ONsa-67" value="" style="edgeStyle=orthogonalEdgeStyle;rounded=0;orthogonalLoop=1;jettySize=auto;html=1;" edge="1" parent="WIyWlLk6GJQsqaUBKTNV-1" source="l5p4byjVXo3E2C04ONsa-46" target="l5p4byjVXo3E2C04ONsa-47">
          <mxGeometry relative="1" as="geometry" />
        </mxCell>
        <mxCell id="l5p4byjVXo3E2C04ONsa-46" value="foreach data_siswa" style="rounded=1;whiteSpace=wrap;html=1;absoluteArcSize=1;arcSize=14;strokeWidth=2;fillColor=#d0cee2;strokeColor=#56517e;" vertex="1" parent="WIyWlLk6GJQsqaUBKTNV-1">
          <mxGeometry x="745" y="230" width="130" height="60" as="geometry" />
        </mxCell>
        <mxCell id="l5p4byjVXo3E2C04ONsa-68" value="" style="edgeStyle=orthogonalEdgeStyle;rounded=0;orthogonalLoop=1;jettySize=auto;html=1;" edge="1" parent="WIyWlLk6GJQsqaUBKTNV-1" source="l5p4byjVXo3E2C04ONsa-47" target="l5p4byjVXo3E2C04ONsa-49">
          <mxGeometry relative="1" as="geometry" />
        </mxCell>
        <mxCell id="l5p4byjVXo3E2C04ONsa-47" value="pilihan" style="shape=parallelogram;html=1;strokeWidth=2;perimeter=parallelogramPerimeter;whiteSpace=wrap;rounded=1;arcSize=12;size=0.23;fillColor=#d0cee2;strokeColor=#56517e;" vertex="1" parent="WIyWlLk6GJQsqaUBKTNV-1">
          <mxGeometry x="760" y="330" width="100" height="60" as="geometry" />
        </mxCell>
        <mxCell id="l5p4byjVXo3E2C04ONsa-61" value="" style="edgeStyle=orthogonalEdgeStyle;rounded=0;orthogonalLoop=1;jettySize=auto;html=1;" edge="1" parent="WIyWlLk6GJQsqaUBKTNV-1" source="l5p4byjVXo3E2C04ONsa-48" target="l5p4byjVXo3E2C04ONsa-53">
          <mxGeometry relative="1" as="geometry" />
        </mxCell>
        <mxCell id="l5p4byjVXo3E2C04ONsa-62" value="Yes" style="edgeLabel;html=1;align=center;verticalAlign=middle;resizable=0;points=[];" vertex="1" connectable="0" parent="l5p4byjVXo3E2C04ONsa-61">
          <mxGeometry x="-0.0457" y="2" relative="1" as="geometry">
            <mxPoint as="offset" />
          </mxGeometry>
        </mxCell>
        <mxCell id="l5p4byjVXo3E2C04ONsa-70" value="" style="edgeStyle=orthogonalEdgeStyle;rounded=0;orthogonalLoop=1;jettySize=auto;html=1;" edge="1" parent="WIyWlLk6GJQsqaUBKTNV-1" source="l5p4byjVXo3E2C04ONsa-48" target="l5p4byjVXo3E2C04ONsa-50">
          <mxGeometry relative="1" as="geometry" />
        </mxCell>
        <mxCell id="l5p4byjVXo3E2C04ONsa-72" value="No" style="edgeLabel;html=1;align=center;verticalAlign=middle;resizable=0;points=[];" vertex="1" connectable="0" parent="l5p4byjVXo3E2C04ONsa-70">
          <mxGeometry x="0.1303" relative="1" as="geometry">
            <mxPoint as="offset" />
          </mxGeometry>
        </mxCell>
        <mxCell id="l5p4byjVXo3E2C04ONsa-48" value="Case 1" style="rhombus;whiteSpace=wrap;html=1;shadow=0;fontFamily=Helvetica;fontSize=12;align=center;strokeWidth=1;spacing=6;spacingTop=-4;fillColor=#d0cee2;strokeColor=#56517e;" vertex="1" parent="WIyWlLk6GJQsqaUBKTNV-1">
          <mxGeometry x="760" y="530" width="100" height="80" as="geometry" />
        </mxCell>
        <mxCell id="l5p4byjVXo3E2C04ONsa-69" value="" style="edgeStyle=orthogonalEdgeStyle;rounded=0;orthogonalLoop=1;jettySize=auto;html=1;" edge="1" parent="WIyWlLk6GJQsqaUBKTNV-1" source="l5p4byjVXo3E2C04ONsa-49" target="l5p4byjVXo3E2C04ONsa-48">
          <mxGeometry relative="1" as="geometry" />
        </mxCell>
        <mxCell id="l5p4byjVXo3E2C04ONsa-49" value="Switch pilihan" style="rounded=1;whiteSpace=wrap;html=1;absoluteArcSize=1;arcSize=14;strokeWidth=2;fillColor=#d0cee2;strokeColor=#56517e;" vertex="1" parent="WIyWlLk6GJQsqaUBKTNV-1">
          <mxGeometry x="760" y="440" width="100" height="60" as="geometry" />
        </mxCell>
        <mxCell id="l5p4byjVXo3E2C04ONsa-60" value="" style="edgeStyle=orthogonalEdgeStyle;rounded=0;orthogonalLoop=1;jettySize=auto;html=1;" edge="1" parent="WIyWlLk6GJQsqaUBKTNV-1" source="l5p4byjVXo3E2C04ONsa-50" target="l5p4byjVXo3E2C04ONsa-54">
          <mxGeometry relative="1" as="geometry" />
        </mxCell>
        <mxCell id="l5p4byjVXo3E2C04ONsa-63" value="Yes" style="edgeLabel;html=1;align=center;verticalAlign=middle;resizable=0;points=[];" vertex="1" connectable="0" parent="l5p4byjVXo3E2C04ONsa-60">
          <mxGeometry x="-0.0076" y="1" relative="1" as="geometry">
            <mxPoint as="offset" />
          </mxGeometry>
        </mxCell>
        <mxCell id="l5p4byjVXo3E2C04ONsa-71" value="" style="edgeStyle=orthogonalEdgeStyle;rounded=0;orthogonalLoop=1;jettySize=auto;html=1;" edge="1" parent="WIyWlLk6GJQsqaUBKTNV-1" source="l5p4byjVXo3E2C04ONsa-50" target="l5p4byjVXo3E2C04ONsa-51">
          <mxGeometry relative="1" as="geometry" />
        </mxCell>
        <mxCell id="l5p4byjVXo3E2C04ONsa-73" value="No" style="edgeLabel;html=1;align=center;verticalAlign=middle;resizable=0;points=[];" vertex="1" connectable="0" parent="l5p4byjVXo3E2C04ONsa-71">
          <mxGeometry x="0.013" y="1" relative="1" as="geometry">
            <mxPoint as="offset" />
          </mxGeometry>
        </mxCell>
        <mxCell id="l5p4byjVXo3E2C04ONsa-50" value="Case 2" style="rhombus;whiteSpace=wrap;html=1;shadow=0;fontFamily=Helvetica;fontSize=12;align=center;strokeWidth=1;spacing=6;spacingTop=-4;fillColor=#d0cee2;strokeColor=#56517e;" vertex="1" parent="WIyWlLk6GJQsqaUBKTNV-1">
          <mxGeometry x="760" y="644" width="100" height="80" as="geometry" />
        </mxCell>
        <mxCell id="l5p4byjVXo3E2C04ONsa-57" style="edgeStyle=orthogonalEdgeStyle;rounded=0;orthogonalLoop=1;jettySize=auto;html=1;exitX=0.5;exitY=1;exitDx=0;exitDy=0;" edge="1" parent="WIyWlLk6GJQsqaUBKTNV-1" source="l5p4byjVXo3E2C04ONsa-51" target="l5p4byjVXo3E2C04ONsa-44">
          <mxGeometry relative="1" as="geometry">
            <Array as="points">
              <mxPoint x="810" y="870" />
              <mxPoint x="1050" y="870" />
              <mxPoint x="1050" y="50" />
            </Array>
          </mxGeometry>
        </mxCell>
        <mxCell id="l5p4byjVXo3E2C04ONsa-58" value="Default" style="edgeLabel;html=1;align=center;verticalAlign=middle;resizable=0;points=[];" vertex="1" connectable="0" parent="l5p4byjVXo3E2C04ONsa-57">
          <mxGeometry x="-0.7663" y="1" relative="1" as="geometry">
            <mxPoint as="offset" />
          </mxGeometry>
        </mxCell>
        <mxCell id="l5p4byjVXo3E2C04ONsa-59" value="" style="edgeStyle=orthogonalEdgeStyle;rounded=0;orthogonalLoop=1;jettySize=auto;html=1;" edge="1" parent="WIyWlLk6GJQsqaUBKTNV-1" source="l5p4byjVXo3E2C04ONsa-51" target="l5p4byjVXo3E2C04ONsa-55">
          <mxGeometry relative="1" as="geometry" />
        </mxCell>
        <mxCell id="l5p4byjVXo3E2C04ONsa-64" value="Yes" style="edgeLabel;html=1;align=center;verticalAlign=middle;resizable=0;points=[];" vertex="1" connectable="0" parent="l5p4byjVXo3E2C04ONsa-59">
          <mxGeometry x="0.0495" relative="1" as="geometry">
            <mxPoint as="offset" />
          </mxGeometry>
        </mxCell>
        <mxCell id="l5p4byjVXo3E2C04ONsa-51" value="Case 3" style="rhombus;whiteSpace=wrap;html=1;shadow=0;fontFamily=Helvetica;fontSize=12;align=center;strokeWidth=1;spacing=6;spacingTop=-4;fillColor=#d0cee2;strokeColor=#56517e;" vertex="1" parent="WIyWlLk6GJQsqaUBKTNV-1">
          <mxGeometry x="760" y="760" width="100" height="80" as="geometry" />
        </mxCell>
        <mxCell id="l5p4byjVXo3E2C04ONsa-53" value="Tambah" style="verticalLabelPosition=bottom;verticalAlign=top;html=1;shape=process;whiteSpace=wrap;rounded=1;size=0.14;arcSize=6;spacingTop=-45;fillColor=#d0cee2;strokeColor=#56517e;" vertex="1" parent="WIyWlLk6GJQsqaUBKTNV-1">
          <mxGeometry x="910" y="540" width="116" height="60" as="geometry" />
        </mxCell>
        <mxCell id="l5p4byjVXo3E2C04ONsa-54" value="Seleksi&lt;div&gt;(data_siswa, True)&lt;/div&gt;" style="verticalLabelPosition=bottom;verticalAlign=top;html=1;shape=process;whiteSpace=wrap;rounded=1;size=0.14;arcSize=6;spacingTop=-50;fillColor=#d0cee2;strokeColor=#56517e;" vertex="1" parent="WIyWlLk6GJQsqaUBKTNV-1">
          <mxGeometry x="910" y="654" width="116" height="60" as="geometry" />
        </mxCell>
        <mxCell id="l5p4byjVXo3E2C04ONsa-55" value="Seleksi&lt;div&gt;(data_siswa, False)&lt;/div&gt;" style="verticalLabelPosition=bottom;verticalAlign=top;html=1;shape=process;whiteSpace=wrap;rounded=1;size=0.14;arcSize=6;spacingTop=-50;fillColor=#d0cee2;strokeColor=#56517e;" vertex="1" parent="WIyWlLk6GJQsqaUBKTNV-1">
          <mxGeometry x="910" y="770" width="116" height="60" as="geometry" />
        </mxCell>
        <mxCell id="l5p4byjVXo3E2C04ONsa-78" value="" style="edgeStyle=orthogonalEdgeStyle;rounded=0;orthogonalLoop=1;jettySize=auto;html=1;" edge="1" parent="WIyWlLk6GJQsqaUBKTNV-1" source="l5p4byjVXo3E2C04ONsa-75" target="l5p4byjVXo3E2C04ONsa-76">
          <mxGeometry relative="1" as="geometry" />
        </mxCell>
        <mxCell id="l5p4byjVXo3E2C04ONsa-75" value="Tambah()" style="strokeWidth=2;html=1;shape=mxgraph.flowchart.start_1;whiteSpace=wrap;fillColor=#bac8d3;strokeColor=#23445d;" vertex="1" parent="WIyWlLk6GJQsqaUBKTNV-1">
          <mxGeometry x="1131" y="20" width="100" height="60" as="geometry" />
        </mxCell>
        <mxCell id="l5p4byjVXo3E2C04ONsa-79" value="" style="edgeStyle=orthogonalEdgeStyle;rounded=0;orthogonalLoop=1;jettySize=auto;html=1;" edge="1" parent="WIyWlLk6GJQsqaUBKTNV-1" source="l5p4byjVXo3E2C04ONsa-76" target="l5p4byjVXo3E2C04ONsa-77">
          <mxGeometry relative="1" as="geometry" />
        </mxCell>
        <mxCell id="l5p4byjVXo3E2C04ONsa-76" value="nama_siswa" style="shape=parallelogram;html=1;strokeWidth=2;perimeter=parallelogramPerimeter;whiteSpace=wrap;rounded=1;arcSize=12;size=0.23;fillColor=#bac8d3;strokeColor=#23445d;" vertex="1" parent="WIyWlLk6GJQsqaUBKTNV-1">
          <mxGeometry x="1131" y="120" width="100" height="60" as="geometry" />
        </mxCell>
        <mxCell id="l5p4byjVXo3E2C04ONsa-81" value="" style="edgeStyle=orthogonalEdgeStyle;rounded=0;orthogonalLoop=1;jettySize=auto;html=1;" edge="1" parent="WIyWlLk6GJQsqaUBKTNV-1" source="l5p4byjVXo3E2C04ONsa-77" target="l5p4byjVXo3E2C04ONsa-80">
          <mxGeometry relative="1" as="geometry" />
        </mxCell>
        <mxCell id="l5p4byjVXo3E2C04ONsa-77" value="model_dosen.tambah_data_siswa&lt;div&gt;(nama_siswa)&lt;/div&gt;" style="rounded=1;whiteSpace=wrap;html=1;absoluteArcSize=1;arcSize=14;strokeWidth=2;fillColor=#bac8d3;strokeColor=#23445d;" vertex="1" parent="WIyWlLk6GJQsqaUBKTNV-1">
          <mxGeometry x="1091" y="230" width="180" height="60" as="geometry" />
        </mxCell>
        <mxCell id="l5p4byjVXo3E2C04ONsa-80" value="return daftar_siswa()" style="strokeWidth=2;html=1;shape=mxgraph.flowchart.start_1;whiteSpace=wrap;fillColor=#bac8d3;strokeColor=#23445d;" vertex="1" parent="WIyWlLk6GJQsqaUBKTNV-1">
          <mxGeometry x="1131" y="330" width="100" height="60" as="geometry" />
        </mxCell>
        <mxCell id="l5p4byjVXo3E2C04ONsa-87" value="" style="edgeStyle=orthogonalEdgeStyle;rounded=0;orthogonalLoop=1;jettySize=auto;html=1;" edge="1" parent="WIyWlLk6GJQsqaUBKTNV-1" source="l5p4byjVXo3E2C04ONsa-82" target="l5p4byjVXo3E2C04ONsa-83">
          <mxGeometry relative="1" as="geometry" />
        </mxCell>
        <mxCell id="l5p4byjVXo3E2C04ONsa-82" value="Seleksi&lt;div&gt;(data_siswa, mode_update)&lt;/div&gt;" style="strokeWidth=2;html=1;shape=mxgraph.flowchart.start_1;whiteSpace=wrap;fillColor=#fad9d5;strokeColor=#ae4132;" vertex="1" parent="WIyWlLk6GJQsqaUBKTNV-1">
          <mxGeometry x="1350" y="20" width="100" height="60" as="geometry" />
        </mxCell>
        <mxCell id="l5p4byjVXo3E2C04ONsa-88" value="" style="edgeStyle=orthogonalEdgeStyle;rounded=0;orthogonalLoop=1;jettySize=auto;html=1;" edge="1" parent="WIyWlLk6GJQsqaUBKTNV-1" source="l5p4byjVXo3E2C04ONsa-83" target="l5p4byjVXo3E2C04ONsa-85">
          <mxGeometry relative="1" as="geometry" />
        </mxCell>
        <mxCell id="l5p4byjVXo3E2C04ONsa-83" value="nomer_urut" style="shape=parallelogram;html=1;strokeWidth=2;perimeter=parallelogramPerimeter;whiteSpace=wrap;rounded=1;arcSize=12;size=0.23;fillColor=#fad9d5;strokeColor=#ae4132;" vertex="1" parent="WIyWlLk6GJQsqaUBKTNV-1">
          <mxGeometry x="1350" y="120" width="100" height="60" as="geometry" />
        </mxCell>
        <mxCell id="l5p4byjVXo3E2C04ONsa-89" style="edgeStyle=orthogonalEdgeStyle;rounded=0;orthogonalLoop=1;jettySize=auto;html=1;exitX=1;exitY=0.5;exitDx=0;exitDy=0;" edge="1" parent="WIyWlLk6GJQsqaUBKTNV-1" source="l5p4byjVXo3E2C04ONsa-85" target="l5p4byjVXo3E2C04ONsa-82">
          <mxGeometry relative="1" as="geometry">
            <Array as="points">
              <mxPoint x="1500" y="260" />
              <mxPoint x="1500" y="50" />
            </Array>
          </mxGeometry>
        </mxCell>
        <mxCell id="l5p4byjVXo3E2C04ONsa-90" value="Yes" style="edgeLabel;html=1;align=center;verticalAlign=middle;resizable=0;points=[];" vertex="1" connectable="0" parent="l5p4byjVXo3E2C04ONsa-89">
          <mxGeometry x="-0.8875" relative="1" as="geometry">
            <mxPoint as="offset" />
          </mxGeometry>
        </mxCell>
        <mxCell id="l5p4byjVXo3E2C04ONsa-92" value="" style="edgeStyle=orthogonalEdgeStyle;rounded=0;orthogonalLoop=1;jettySize=auto;html=1;" edge="1" parent="WIyWlLk6GJQsqaUBKTNV-1" source="l5p4byjVXo3E2C04ONsa-85" target="l5p4byjVXo3E2C04ONsa-91">
          <mxGeometry relative="1" as="geometry" />
        </mxCell>
        <mxCell id="l5p4byjVXo3E2C04ONsa-104" value="No" style="edgeLabel;html=1;align=center;verticalAlign=middle;resizable=0;points=[];" vertex="1" connectable="0" parent="l5p4byjVXo3E2C04ONsa-92">
          <mxGeometry x="-0.2417" relative="1" as="geometry">
            <mxPoint as="offset" />
          </mxGeometry>
        </mxCell>
        <mxCell id="l5p4byjVXo3E2C04ONsa-85" value="if nomer_urut &amp;gt; len(data_siswa)" style="rhombus;whiteSpace=wrap;html=1;shadow=0;fontFamily=Helvetica;fontSize=12;align=center;strokeWidth=1;spacing=6;spacingTop=-4;fillColor=#fad9d5;strokeColor=#ae4132;" vertex="1" parent="WIyWlLk6GJQsqaUBKTNV-1">
          <mxGeometry x="1335" y="210" width="130" height="100" as="geometry" />
        </mxCell>
        <mxCell id="l5p4byjVXo3E2C04ONsa-94" value="" style="edgeStyle=orthogonalEdgeStyle;rounded=0;orthogonalLoop=1;jettySize=auto;html=1;" edge="1" parent="WIyWlLk6GJQsqaUBKTNV-1" source="l5p4byjVXo3E2C04ONsa-91" target="l5p4byjVXo3E2C04ONsa-93">
          <mxGeometry relative="1" as="geometry" />
        </mxCell>
        <mxCell id="l5p4byjVXo3E2C04ONsa-91" value="id_terpilih = data_siswa[(nomer_urut - 1)][&quot;id_siswa&quot;]" style="rounded=1;whiteSpace=wrap;html=1;absoluteArcSize=1;arcSize=14;strokeWidth=2;fillColor=#fad9d5;strokeColor=#ae4132;" vertex="1" parent="WIyWlLk6GJQsqaUBKTNV-1">
          <mxGeometry x="1310" y="350" width="180" height="60" as="geometry" />
        </mxCell>
        <mxCell id="l5p4byjVXo3E2C04ONsa-97" style="edgeStyle=orthogonalEdgeStyle;rounded=0;orthogonalLoop=1;jettySize=auto;html=1;exitX=0;exitY=0.5;exitDx=0;exitDy=0;" edge="1" parent="WIyWlLk6GJQsqaUBKTNV-1" source="l5p4byjVXo3E2C04ONsa-93" target="l5p4byjVXo3E2C04ONsa-96">
          <mxGeometry relative="1" as="geometry" />
        </mxCell>
        <mxCell id="l5p4byjVXo3E2C04ONsa-105" value="Yes" style="edgeLabel;html=1;align=center;verticalAlign=middle;resizable=0;points=[];" vertex="1" connectable="0" parent="l5p4byjVXo3E2C04ONsa-97">
          <mxGeometry x="-0.3281" y="2" relative="1" as="geometry">
            <mxPoint as="offset" />
          </mxGeometry>
        </mxCell>
        <mxCell id="l5p4byjVXo3E2C04ONsa-100" style="edgeStyle=orthogonalEdgeStyle;rounded=0;orthogonalLoop=1;jettySize=auto;html=1;exitX=1;exitY=0.5;exitDx=0;exitDy=0;" edge="1" parent="WIyWlLk6GJQsqaUBKTNV-1" source="l5p4byjVXo3E2C04ONsa-93" target="l5p4byjVXo3E2C04ONsa-99">
          <mxGeometry relative="1" as="geometry" />
        </mxCell>
        <mxCell id="l5p4byjVXo3E2C04ONsa-106" value="No" style="edgeLabel;html=1;align=center;verticalAlign=middle;resizable=0;points=[];" vertex="1" connectable="0" parent="l5p4byjVXo3E2C04ONsa-100">
          <mxGeometry x="-0.4907" y="-2" relative="1" as="geometry">
            <mxPoint as="offset" />
          </mxGeometry>
        </mxCell>
        <mxCell id="l5p4byjVXo3E2C04ONsa-93" value="if mode_update&lt;div&gt;is True&lt;/div&gt;" style="rhombus;whiteSpace=wrap;html=1;shadow=0;fontFamily=Helvetica;fontSize=12;align=center;strokeWidth=1;spacing=6;spacingTop=-4;fillColor=#fad9d5;strokeColor=#ae4132;" vertex="1" parent="WIyWlLk6GJQsqaUBKTNV-1">
          <mxGeometry x="1342.5" y="460" width="115" height="70" as="geometry" />
        </mxCell>
        <mxCell id="l5p4byjVXo3E2C04ONsa-102" style="edgeStyle=orthogonalEdgeStyle;rounded=0;orthogonalLoop=1;jettySize=auto;html=1;exitX=0.5;exitY=1;exitDx=0;exitDy=0;" edge="1" parent="WIyWlLk6GJQsqaUBKTNV-1" source="l5p4byjVXo3E2C04ONsa-95" target="l5p4byjVXo3E2C04ONsa-101">
          <mxGeometry relative="1" as="geometry" />
        </mxCell>
        <mxCell id="l5p4byjVXo3E2C04ONsa-95" value="model_dosen.ubah_data_siswa&lt;div&gt;(id_terpilih, nama_siswa)&lt;/div&gt;" style="rounded=1;whiteSpace=wrap;html=1;absoluteArcSize=1;arcSize=14;strokeWidth=2;fillColor=#fad9d5;strokeColor=#ae4132;" vertex="1" parent="WIyWlLk6GJQsqaUBKTNV-1">
          <mxGeometry x="1162.5" y="644" width="180" height="60" as="geometry" />
        </mxCell>
        <mxCell id="l5p4byjVXo3E2C04ONsa-98" value="" style="edgeStyle=orthogonalEdgeStyle;rounded=0;orthogonalLoop=1;jettySize=auto;html=1;" edge="1" parent="WIyWlLk6GJQsqaUBKTNV-1" source="l5p4byjVXo3E2C04ONsa-96" target="l5p4byjVXo3E2C04ONsa-95">
          <mxGeometry relative="1" as="geometry" />
        </mxCell>
        <mxCell id="l5p4byjVXo3E2C04ONsa-96" value="nama_siswa" style="shape=parallelogram;html=1;strokeWidth=2;perimeter=parallelogramPerimeter;whiteSpace=wrap;rounded=1;arcSize=12;size=0.23;fillColor=#fad9d5;strokeColor=#ae4132;" vertex="1" parent="WIyWlLk6GJQsqaUBKTNV-1">
          <mxGeometry x="1202.5" y="540" width="100" height="60" as="geometry" />
        </mxCell>
        <mxCell id="l5p4byjVXo3E2C04ONsa-103" style="edgeStyle=orthogonalEdgeStyle;rounded=0;orthogonalLoop=1;jettySize=auto;html=1;exitX=0.5;exitY=1;exitDx=0;exitDy=0;" edge="1" parent="WIyWlLk6GJQsqaUBKTNV-1" source="l5p4byjVXo3E2C04ONsa-99" target="l5p4byjVXo3E2C04ONsa-101">
          <mxGeometry relative="1" as="geometry" />
        </mxCell>
        <mxCell id="l5p4byjVXo3E2C04ONsa-99" value="model_dosen.hapus_data_siswa&lt;div&gt;(id_terpilih)&lt;/div&gt;" style="rounded=1;whiteSpace=wrap;html=1;absoluteArcSize=1;arcSize=14;strokeWidth=2;fillColor=#fad9d5;strokeColor=#ae4132;" vertex="1" parent="WIyWlLk6GJQsqaUBKTNV-1">
          <mxGeometry x="1457.5" y="585" width="180" height="60" as="geometry" />
        </mxCell>
        <mxCell id="l5p4byjVXo3E2C04ONsa-101" value="return daftar_siswa()" style="strokeWidth=2;html=1;shape=mxgraph.flowchart.start_1;whiteSpace=wrap;fillColor=#fad9d5;strokeColor=#ae4132;" vertex="1" parent="WIyWlLk6GJQsqaUBKTNV-1">
          <mxGeometry x="1350" y="770" width="100" height="60" as="geometry" />
        </mxCell>
      </root>
    </mxGraphModel>
  </diagram>
</mxfile>
